<svg width="14" height="11" viewBox="0 0 14 11" fill="none" xmlns="http://www.w3.org/2000/svg">
<path d="M7.48235 0.0503728C7.42628 0.0173913 7.36241 0 7.29735 0C7.2323 0 7.16843 0.0173913 7.11236 0.0503728L0.594727 3.88414L0.964723 4.51319L7.29735 0.788155L13.63 4.51356L14 3.88451L11.676 2.51767V0.729775C11.676 0.633003 11.6376 0.540195 11.5691 0.471768C11.5007 0.40334 11.4079 0.364897 11.3111 0.364897H10.2165C10.1197 0.364897 10.0269 0.40334 9.95844 0.471768C9.89001 0.540195 9.85157 0.633003 9.85157 0.729775V1.44384L7.48235 0.0503728Z" fill="#666666"/>
<path fill-rule="evenodd" clip-rule="evenodd" d="M7.29776 1.45898L2.18933 4.37801V9.48629H0.364888C0.268114 9.48629 0.175303 9.52473 0.106873 9.59316C0.0384435 9.66159 0 9.7544 0 9.85117C0 9.94794 0.0384435 10.0407 0.106873 10.1092C0.175303 10.1776 0.268114 10.216 0.364888 10.216H13.5009C13.5976 10.216 13.6904 10.1776 13.7589 10.1092C13.8273 10.0407 13.8657 9.94794 13.8657 9.85117C13.8657 9.7544 13.8273 9.66159 13.7589 9.59316C13.6904 9.52473 13.5976 9.48629 13.5009 9.48629H12.4062V4.37801L7.29776 1.45898ZM8.75731 9.48629V5.47264H10.9466V9.48629H8.75731ZM7.66265 5.47264H3.64888V7.6619H7.66265V5.47264Z" fill="#666666"/>
</svg>
