<svg width="24" height="24" viewBox="0 0 24 24" fill="none" xmlns="http://www.w3.org/2000/svg">
<path d="M23.7288 12.7723L14.4987 23.6801C14.3254 23.8849 14.0903 24 13.8452 24C13.6001 24 13.365 23.8849 13.1917 23.6801C13.0184 23.4753 12.921 23.1975 12.921 22.9078C12.921 22.6182 13.0184 22.3404 13.1917 22.1356L20.8472 13.0908H0.923014C0.678215 13.0908 0.443443 12.9759 0.270344 12.7713C0.0972462 12.5667 0 12.2893 0 12C0 11.7107 0.0972462 11.4333 0.270344 11.2287C0.443443 11.0241 0.678215 10.9092 0.923014 10.9092H20.8472L13.1917 1.86444C13.0184 1.65962 12.921 1.38182 12.921 1.09216C12.921 0.802503 13.0184 0.524707 13.1917 0.319887C13.365 0.115067 13.6001 2.15813e-09 13.8452 0C14.0903 -2.15813e-09 14.3254 0.115067 14.4987 0.319887L23.7288 11.2277C23.8148 11.3291 23.883 11.4494 23.9295 11.5819C23.976 11.7145 24 11.8565 24 12C24 12.1435 23.976 12.2855 23.9295 12.4181C23.883 12.5506 23.8148 12.671 23.7288 12.7723Z" fill="white"/>
</svg>
