<svg width="20" height="20" viewBox="0 0 20 20" fill="none" xmlns="http://www.w3.org/2000/svg">
<path d="M1.38966 0C1.0211 0 0.667634 0.18165 0.407022 0.504988C0.14641 0.828327 0 1.26687 0 1.72414C0 2.18141 0.14641 2.61995 0.407022 2.94329C0.667634 3.26663 1.0211 3.44828 1.38966 3.44828H1.40078C1.76934 3.44828 2.1228 3.26663 2.38342 2.94329C2.64403 2.61995 2.79044 2.18141 2.79044 1.72414C2.79044 1.26687 2.64403 0.828327 2.38342 0.504988C2.1228 0.18165 1.76934 0 1.40078 0H1.38966ZM5.82546 0.689655C5.60432 0.689655 5.39224 0.798645 5.23588 0.992648C5.07951 1.18665 4.99166 1.44978 4.99166 1.72414C4.99166 1.9985 5.07951 2.26162 5.23588 2.45563C5.39224 2.64963 5.60432 2.75862 5.82546 2.75862H19.1662C19.3873 2.75862 19.5994 2.64963 19.7558 2.45563C19.9122 2.26162 20 1.9985 20 1.72414C20 1.44978 19.9122 1.18665 19.7558 0.992648C19.5994 0.798645 19.3873 0.689655 19.1662 0.689655H5.82546ZM5.82546 17.2414C5.60432 17.2414 5.39224 17.3504 5.23588 17.5444C5.07951 17.7384 4.99166 18.0015 4.99166 18.2759C4.99166 18.5502 5.07951 18.8134 5.23588 19.0074C5.39224 19.2014 5.60432 19.3103 5.82546 19.3103H19.1662C19.3873 19.3103 19.5994 19.2014 19.7558 19.0074C19.9122 18.8134 20 18.5502 20 18.2759C20 18.0015 19.9122 17.7384 19.7558 17.5444C19.5994 17.3504 19.3873 17.2414 19.1662 17.2414H5.82546ZM4.99166 10C4.99166 9.72564 5.07951 9.46251 5.23588 9.26851C5.39224 9.07451 5.60432 8.96552 5.82546 8.96552H19.1662C19.3873 8.96552 19.5994 9.07451 19.7558 9.26851C19.9122 9.46251 20 9.72564 20 10C20 10.2744 19.9122 10.5375 19.7558 10.7315C19.5994 10.9255 19.3873 11.0345 19.1662 11.0345H5.82546C5.60432 11.0345 5.39224 10.9255 5.23588 10.7315C5.07951 10.5375 4.99166 10.2744 4.99166 10ZM0 10C0 9.04828 0.622568 8.27586 1.38966 8.27586H1.40078C1.76934 8.27586 2.1228 8.45751 2.38342 8.78085C2.64403 9.10419 2.79044 9.54273 2.79044 10C2.79044 10.4573 2.64403 10.8958 2.38342 11.2191C2.1228 11.5425 1.76934 11.7241 1.40078 11.7241H1.38966C0.622568 11.7241 0 10.9517 0 10ZM1.38966 16.5517C1.0211 16.5517 0.667634 16.7334 0.407022 17.0567C0.14641 17.3801 0 17.8186 0 18.2759C0 18.7331 0.14641 19.1717 0.407022 19.495C0.667634 19.8184 1.0211 20 1.38966 20H1.40078C1.76934 20 2.1228 19.8184 2.38342 19.495C2.64403 19.1717 2.79044 18.7331 2.79044 18.2759C2.79044 17.8186 2.64403 17.3801 2.38342 17.0567C2.1228 16.7334 1.76934 16.5517 1.40078 16.5517H1.38966Z" fill="#1A1515"/>
</svg>
