<svg width="20" height="20" viewBox="0 0 20 20" fill="none" xmlns="http://www.w3.org/2000/svg">
<path d="M14.1668 15.0003C14.6089 15.0003 15.0328 15.1759 15.3453 15.4885C15.6579 15.801 15.8335 16.225 15.8335 16.667C15.8335 17.109 15.6579 17.5329 15.3453 17.8455C15.0328 18.1581 14.6089 18.3337 14.1668 18.3337C13.7248 18.3337 13.3009 18.1581 12.9883 17.8455C12.6758 17.5329 12.5002 17.109 12.5002 16.667C12.5002 15.742 13.2418 15.0003 14.1668 15.0003ZM0.833496 1.66699H3.5585L4.34183 3.33366H16.6668C16.8878 3.33366 17.0998 3.42146 17.2561 3.57774C17.4124 3.73402 17.5002 3.94598 17.5002 4.16699C17.5002 4.30866 17.4585 4.45033 17.4002 4.58366L14.4168 9.97533C14.1335 10.4837 13.5835 10.8337 12.9585 10.8337H6.75016L6.00016 12.192L5.97516 12.292C5.97516 12.3472 5.99711 12.4002 6.03618 12.4393C6.07525 12.4784 6.12824 12.5003 6.1835 12.5003H15.8335V14.167H5.8335C5.39147 14.167 4.96755 13.9914 4.65498 13.6788C4.34242 13.3663 4.16683 12.9424 4.16683 12.5003C4.16683 12.2087 4.24183 11.9337 4.36683 11.7003L5.50016 9.65866L2.50016 3.33366H0.833496V1.66699ZM5.8335 15.0003C6.27552 15.0003 6.69945 15.1759 7.01201 15.4885C7.32457 15.801 7.50016 16.225 7.50016 16.667C7.50016 17.109 7.32457 17.5329 7.01201 17.8455C6.69945 18.1581 6.27552 18.3337 5.8335 18.3337C5.39147 18.3337 4.96755 18.1581 4.65498 17.8455C4.34242 17.5329 4.16683 17.109 4.16683 16.667C4.16683 15.742 4.9085 15.0003 5.8335 15.0003ZM13.3335 9.16699L15.6502 5.00033H5.11683L7.0835 9.16699H13.3335Z" fill="#1A1515"/>
</svg>
