<svg width="20" height="20" viewBox="0 0 20 20" fill="none" xmlns="http://www.w3.org/2000/svg">
<path d="M14.1668 15.0003C13.2418 15.0003 12.5002 15.742 12.5002 16.667C12.5002 17.109 12.6758 17.5329 12.9883 17.8455C13.3009 18.1581 13.7248 18.3337 14.1668 18.3337C14.6089 18.3337 15.0328 18.1581 15.3453 17.8455C15.6579 17.5329 15.8335 17.109 15.8335 16.667C15.8335 16.225 15.6579 15.801 15.3453 15.4885C15.0328 15.1759 14.6089 15.0003 14.1668 15.0003ZM0.833496 1.66699V3.33366H2.50016L5.50016 9.65866L4.36683 11.7003C4.24183 11.9337 4.16683 12.2087 4.16683 12.5003C4.16683 12.9424 4.34242 13.3663 4.65498 13.6788C4.96755 13.9914 5.39147 14.167 5.8335 14.167H15.8335V12.5003H6.1835C6.12824 12.5003 6.07525 12.4784 6.03618 12.4393C5.99711 12.4002 5.97516 12.3472 5.97516 12.292C5.97516 12.2503 5.9835 12.217 6.00016 12.192L6.75016 10.8337H12.9585C13.5835 10.8337 14.1335 10.4837 14.4168 9.97533L17.4002 4.58366C17.4585 4.45033 17.5002 4.30866 17.5002 4.16699C17.5002 3.94598 17.4124 3.73402 17.2561 3.57774C17.0998 3.42146 16.8878 3.33366 16.6668 3.33366H4.34183L3.5585 1.66699M5.8335 15.0003C4.9085 15.0003 4.16683 15.742 4.16683 16.667C4.16683 17.109 4.34242 17.5329 4.65498 17.8455C4.96755 18.1581 5.39147 18.3337 5.8335 18.3337C6.27552 18.3337 6.69945 18.1581 7.01201 17.8455C7.32457 17.5329 7.50016 17.109 7.50016 16.667C7.50016 16.225 7.32457 15.801 7.01201 15.4885C6.69945 15.1759 6.27552 15.0003 5.8335 15.0003Z" fill="#1A1515"/>
</svg>
