<svg width="17" height="17" viewBox="0 0 17 17" fill="none" xmlns="http://www.w3.org/2000/svg">
<mask id="mask0_2401_17758" style="mask-type:alpha" maskUnits="userSpaceOnUse" x="0" y="0" width="17" height="17">
<rect width="17" height="17" fill="#D9D9D9"/>
</mask>
<g mask="url(#mask0_2401_17758)">
<path d="M7.50832 11.7587L12.5021 6.76491L11.5104 5.77324L7.50832 9.77533L5.48957 7.75658L4.49791 8.74824L7.50832 11.7587ZM8.49999 15.5837C7.52013 15.5837 6.5993 15.3977 5.73749 15.0258C4.87568 14.654 4.12603 14.1493 3.48853 13.5118C2.85103 12.8743 2.34634 12.1246 1.97447 11.2628C1.60259 10.401 1.41666 9.48019 1.41666 8.50033C1.41666 7.52046 1.60259 6.59963 1.97447 5.73783C2.34634 4.87602 2.85103 4.12637 3.48853 3.48887C4.12603 2.85137 4.87568 2.34668 5.73749 1.9748C6.5993 1.60293 7.52013 1.41699 8.49999 1.41699C9.47985 1.41699 10.4007 1.60293 11.2625 1.9748C12.1243 2.34668 12.8739 2.85137 13.5114 3.48887C14.1489 4.12637 14.6536 4.87602 15.0255 5.73783C15.3974 6.59963 15.5833 7.52046 15.5833 8.50033C15.5833 9.48019 15.3974 10.401 15.0255 11.2628C14.6536 12.1246 14.1489 12.8743 13.5114 13.5118C12.8739 14.1493 12.1243 14.654 11.2625 15.0258C10.4007 15.3977 9.47985 15.5837 8.49999 15.5837Z" fill="#119569"/>
</g>
</svg>
