<svg width="20" height="20" viewBox="0 0 20 20" fill="none" xmlns="http://www.w3.org/2000/svg">
<g clip-path="url(#clip0_4672_1047)">
<path d="M10.8946 10.0002L13.5946 7.30023C13.6856 7.19395 13.7332 7.05724 13.7278 6.91742C13.7224 6.7776 13.6644 6.64497 13.5655 6.54603C13.4666 6.44709 13.3339 6.38913 13.1941 6.38373C13.0543 6.37833 12.9176 6.42588 12.8113 6.5169L10.1113 9.18912L7.39463 6.47245C7.28835 6.38144 7.15164 6.33388 7.01182 6.33928C6.872 6.34468 6.73936 6.40264 6.64042 6.50159C6.54148 6.60053 6.48352 6.73316 6.47812 6.87298C6.47272 7.0128 6.52028 7.14951 6.61129 7.25579L9.3224 10.0002L6.66685 12.6225C6.60869 12.6723 6.56146 12.7335 6.52811 12.8025C6.49476 12.8714 6.47603 12.9465 6.47307 13.023C6.47011 13.0995 6.48301 13.1758 6.51094 13.2471C6.53887 13.3184 6.58123 13.3831 6.63538 13.4373C6.68952 13.4914 6.75427 13.5338 6.82556 13.5617C6.89685 13.5896 6.97314 13.6025 7.04965 13.5996C7.12617 13.5966 7.20124 13.5779 7.27016 13.5445C7.33909 13.5112 7.40038 13.4639 7.45018 13.4058L10.1002 10.7558L12.7335 13.3891C12.8398 13.4801 12.9765 13.5277 13.1163 13.5223C13.2561 13.5169 13.3888 13.4589 13.4877 13.36C13.5867 13.261 13.6446 13.1284 13.65 12.9886C13.6554 12.8488 13.6079 12.7121 13.5168 12.6058L10.8946 10.0002Z" fill="#1A1515"/>
<path d="M10.0002 18.8891C8.24217 18.8891 6.52359 18.3678 5.06182 17.3911C3.60005 16.4143 2.46074 15.0261 1.78796 13.4019C1.11518 11.7776 0.93915 9.99036 1.28213 8.26609C1.62511 6.54181 2.47169 4.95796 3.71483 3.71483C4.95796 2.47169 6.54181 1.62511 8.26609 1.28213C9.99036 0.93915 11.7776 1.11518 13.4019 1.78796C15.0261 2.46074 16.4143 3.60005 17.3911 5.06182C18.3678 6.52359 18.8891 8.24217 18.8891 10.0002C18.8891 12.3577 17.9526 14.6186 16.2856 16.2856C14.6186 17.9526 12.3577 18.8891 10.0002 18.8891ZM10.0002 2.22244C8.46192 2.22244 6.95817 2.6786 5.67912 3.53324C4.40007 4.38787 3.40317 5.60259 2.81449 7.0238C2.22581 8.445 2.07178 10.0088 2.37189 11.5176C2.672 13.0263 3.41276 14.4122 4.5005 15.4999C5.58824 16.5877 6.97411 17.3284 8.48285 17.6286C9.99159 17.9287 11.5554 17.7746 12.9766 17.186C14.3979 16.5973 15.6126 15.6004 16.4672 14.3213C17.3218 13.0423 17.778 11.5385 17.778 10.0002C17.778 7.93743 16.9586 5.95912 15.4999 4.5005C14.0413 3.04189 12.063 2.22244 10.0002 2.22244Z" fill="#1A1515"/>
</g>
<defs>
<clipPath id="clip0_4672_1047">
<rect width="20" height="20" fill="white"/>
</clipPath>
</defs>
</svg>
