<svg width="64" height="64" viewBox="0 0 64 64" fill="none" xmlns="http://www.w3.org/2000/svg">
<path d="M0 32C0 14.3269 14.3269 0 32 0C49.6731 0 64 14.3269 64 32C64 49.6731 49.6731 64 32 64C14.3269 64 0 49.6731 0 32Z" fill="#5D3A82"/>
<path d="M48.3347 28.6666C49.0958 32.4021 48.5534 36.2857 46.7978 39.6696C45.0421 43.0536 42.1795 45.7334 38.6872 47.2622C35.1949 48.791 31.2841 49.0763 27.6068 48.0706C23.9296 47.0649 20.7083 44.829 18.4801 41.7357C16.2519 38.6424 15.1515 34.8787 15.3625 31.0723C15.5734 27.2659 17.0828 23.6468 19.6391 20.8186C22.1954 17.9904 25.644 16.124 29.4098 15.5307C33.1756 14.9374 37.031 15.6531 40.333 17.5583" stroke="white" stroke-width="3.33333" stroke-linecap="round" stroke-linejoin="round"/>
<path d="M27 30.3332L32 35.3332L48.6667 18.6665" stroke="white" stroke-width="3.33333" stroke-linecap="round" stroke-linejoin="round"/>
</svg>
