<svg width="20" height="20" viewBox="0 0 20 20" fill="none" xmlns="http://www.w3.org/2000/svg">
<path d="M6.34651 16.6671C5.97595 16.6671 5.65901 16.5351 5.39568 16.2712C5.13234 16.0073 5.0004 15.6909 4.99984 15.3221V5.00039H4.58318C4.46484 5.00039 4.36595 4.96039 4.28651 4.88039C4.20707 4.80039 4.16707 4.70122 4.16651 4.58289C4.16595 4.46456 4.20595 4.36567 4.28651 4.28622C4.36707 4.20678 4.46595 4.16706 4.58318 4.16706H7.49984C7.49984 3.99484 7.56373 3.84484 7.69151 3.71706C7.81929 3.58928 7.96929 3.52539 8.14151 3.52539H11.8582C12.0304 3.52539 12.1804 3.58928 12.3082 3.71706C12.436 3.84484 12.4998 3.99484 12.4998 4.16706H15.4165C15.5348 4.16706 15.6337 4.20706 15.7132 4.28706C15.7926 4.36706 15.8326 4.46622 15.8332 4.58456C15.8337 4.70289 15.7937 4.80178 15.7132 4.88122C15.6326 4.96067 15.5337 5.00039 15.4165 5.00039H14.9998V15.3212C14.9998 15.6912 14.8679 16.0079 14.604 16.2712C14.3401 16.5346 14.0235 16.6665 13.654 16.6671H6.34651ZM14.1665 5.00039H5.83318V15.3212C5.83318 15.4707 5.88123 15.5934 5.97734 15.6896C6.07345 15.7857 6.19651 15.8337 6.34651 15.8337H13.654C13.8035 15.8337 13.9262 15.7857 14.0223 15.6896C14.1185 15.5934 14.1665 15.4707 14.1665 15.3212V5.00039ZM8.58984 14.1671C8.70818 14.1671 8.80734 14.1271 8.88734 14.0471C8.96734 13.9671 9.00706 13.8682 9.00651 13.7504V7.08372C9.00651 6.96539 8.96651 6.8665 8.88651 6.78706C8.80651 6.70761 8.70734 6.66761 8.58901 6.66706C8.47068 6.6665 8.37179 6.7065 8.29234 6.78706C8.2129 6.86761 8.17318 6.9665 8.17318 7.08372V13.7504C8.17318 13.8687 8.21318 13.9676 8.29318 14.0471C8.37318 14.1271 8.47206 14.1671 8.58984 14.1671ZM11.4107 14.1671C11.529 14.1671 11.6279 14.1271 11.7073 14.0471C11.7868 13.9671 11.8265 13.8682 11.8265 13.7504V7.08372C11.8265 6.96539 11.7865 6.8665 11.7065 6.78706C11.6265 6.70706 11.5276 6.66706 11.4098 6.66706C11.2915 6.66706 11.1923 6.70706 11.1123 6.78706C11.0323 6.86706 10.9926 6.96595 10.9932 7.08372V13.7504C10.9932 13.8687 11.0332 13.9676 11.1132 14.0471C11.1932 14.1265 11.2923 14.1665 11.4107 14.1671Z" fill="#1A1515"/>
</svg>
