<svg width="13" height="10" viewBox="0 0 13 10" fill="none" xmlns="http://www.w3.org/2000/svg">
<path d="M1.19429 3.5H0.290121C0.173454 3.5 0.0884822 3.44905 0.0352045 3.34717C-0.0180733 3.24528 -0.0108789 3.14553 0.0567878 3.04792L1.51512 0.9625C1.56373 0.904167 1.61973 0.884722 1.68312 0.904167C1.74651 0.923611 1.77801 0.972222 1.77762 1.05V2.33333H2.68179C2.79845 2.33333 2.88343 2.38447 2.9367 2.48675C2.98998 2.58903 2.98279 2.68858 2.91512 2.78542L1.45679 4.87083C1.40818 4.92917 1.35218 4.94861 1.28879 4.92917C1.2254 4.90972 1.1939 4.86111 1.19429 4.78333V3.5ZM3.11929 9.33333C2.63318 9.33333 2.21998 9.16319 1.8797 8.82292C1.53943 8.48264 1.36929 8.06944 1.36929 7.58333C1.36929 7.34028 1.42529 7.1118 1.53729 6.89792C1.64929 6.68403 1.80232 6.4993 1.99637 6.34375L5.48179 1.16667H3.67345C3.50818 1.16667 3.37207 1.11067 3.26512 0.998666C3.15818 0.886666 3.1047 0.748222 3.1047 0.583333C3.1047 0.418444 3.1607 0.28 3.2727 0.168C3.3847 0.0560001 3.52315 0 3.68804 0H8.92345C9.1179 0 9.27345 0.0729167 9.39012 0.21875C9.50679 0.364583 9.54081 0.529861 9.4922 0.714583L9.11304 2.33333H10.236C10.4207 2.33333 10.5957 2.37475 10.761 2.45758C10.9262 2.54042 11.0623 2.65456 11.1693 2.8L12.263 4.24375C12.37 4.37986 12.438 4.52822 12.4672 4.68883C12.4964 4.84944 12.4964 5.01219 12.4672 5.17708L12.0735 7.11667C12.0443 7.25278 11.9762 7.36458 11.8693 7.45208C11.7623 7.53958 11.6408 7.58333 11.5047 7.58333H10.8193C10.8193 8.06944 10.6491 8.48264 10.3089 8.82292C9.96859 9.16319 9.5554 9.33333 9.06929 9.33333C8.58318 9.33333 8.16998 9.16319 7.8297 8.82292C7.48943 8.48264 7.31929 8.06944 7.31929 7.58333H4.86929C4.86929 8.06944 4.69915 8.48264 4.35887 8.82292C4.01859 9.16319 3.6054 9.33333 3.11929 9.33333ZM3.23595 8.16667C3.40123 8.16667 3.53987 8.11067 3.65187 7.99867C3.76387 7.88667 3.81968 7.74822 3.81929 7.58333C3.8189 7.41844 3.7629 7.28 3.65129 7.168C3.53968 7.056 3.40123 7 3.23595 7C3.07068 7 2.93223 7.056 2.82062 7.168C2.70901 7.28 2.65301 7.41844 2.65262 7.58333C2.65223 7.74822 2.70823 7.88686 2.82062 7.99925C2.93301 8.11164 3.07145 8.16744 3.23595 8.16667ZM9.06929 8.16667C9.23456 8.16667 9.3732 8.11067 9.4852 7.99867C9.5972 7.88667 9.65301 7.74822 9.65262 7.58333C9.65223 7.41844 9.59623 7.28 9.48462 7.168C9.37301 7.056 9.23456 7 9.06929 7C8.90401 7 8.76556 7.056 8.65395 7.168C8.54234 7.28 8.48634 7.41844 8.48595 7.58333C8.48556 7.74822 8.54156 7.88686 8.65395 7.99925C8.76634 8.11164 8.90479 8.16744 9.06929 8.16667ZM8.4422 5.25H11.2568L11.3151 4.94375L10.236 3.5H8.85054L8.4422 5.25Z" fill="#666666"/>
</svg>
