<svg width="128" height="128" viewBox="0 0 128 128" fill="none" xmlns="http://www.w3.org/2000/svg">
<rect width="128" height="128" rx="64" fill="#969696" fill-opacity="0.15"/>
<path d="M87.3335 47.3337H77.3335V44.0003C77.3335 40.4641 75.9287 37.0727 73.4283 34.5722C70.9278 32.0718 67.5364 30.667 64.0002 30.667C60.4639 30.667 57.0726 32.0718 54.5721 34.5722C52.0716 37.0727 50.6668 40.4641 50.6668 44.0003V47.3337H40.6668C39.7828 47.3337 38.9349 47.6848 38.3098 48.31C37.6847 48.9351 37.3335 49.7829 37.3335 50.667V87.3337C37.3335 89.9858 38.3871 92.5294 40.2624 94.4047C42.1378 96.2801 44.6813 97.3337 47.3335 97.3337H80.6668C83.319 97.3337 85.8625 96.2801 87.7379 94.4047C89.6133 92.5294 90.6668 89.9858 90.6668 87.3337V50.667C90.6668 49.7829 90.3156 48.9351 89.6905 48.31C89.0654 47.6848 88.2175 47.3337 87.3335 47.3337ZM57.3335 44.0003C57.3335 42.2322 58.0359 40.5365 59.2861 39.2863C60.5364 38.036 62.2321 37.3337 64.0002 37.3337C65.7683 37.3337 67.464 38.036 68.7142 39.2863C69.9644 40.5365 70.6668 42.2322 70.6668 44.0003V47.3337H57.3335V44.0003ZM84.0002 87.3337C84.0002 88.2177 83.649 89.0656 83.0239 89.6907C82.3987 90.3158 81.5509 90.667 80.6668 90.667H47.3335C46.4494 90.667 45.6016 90.3158 44.9765 89.6907C44.3514 89.0656 44.0002 88.2177 44.0002 87.3337V54.0003H50.6668V57.3337C50.6668 58.2177 51.018 59.0656 51.6431 59.6907C52.2683 60.3158 53.1161 60.667 54.0002 60.667C54.8842 60.667 55.7321 60.3158 56.3572 59.6907C56.9823 59.0656 57.3335 58.2177 57.3335 57.3337V54.0003H70.6668V57.3337C70.6668 58.2177 71.018 59.0656 71.6431 59.6907C72.2683 60.3158 73.1161 60.667 74.0002 60.667C74.8842 60.667 75.7321 60.3158 76.3572 59.6907C76.9823 59.0656 77.3335 58.2177 77.3335 57.3337V54.0003H84.0002V87.3337Z" fill="#969696"/>
</svg>
