<svg width="16" height="12" viewBox="0 0 16 12" fill="none" xmlns="http://www.w3.org/2000/svg">
<path d="M1.06531 11.7217H3.55109V5.68477L0 3.02148V10.6564C0 11.2459 0.477656 11.7217 1.06531 11.7217Z" fill="#4285F4"/>
<path d="M12.0737 11.7218H14.5596C15.149 11.7218 15.6249 11.2441 15.6249 10.6565V3.02148L12.0737 5.68484" fill="#34A853"/>
<path d="M12.0737 1.06842V5.6849L15.6249 3.02162V1.601C15.6249 0.283575 14.121 -0.467518 13.0681 0.322638" fill="#FBBC04"/>
<path d="M3.55127 5.68492V1.06852L7.8126 4.26437L12.0739 1.06836V5.68484L7.8126 8.88094" fill="#EA4335"/>
<path d="M0 1.601V3.02147L3.55109 5.68482V1.06842L2.5568 0.322638C1.50211 -0.467518 0 0.283575 0 1.601Z" fill="#C5221F"/>
</svg>
