<svg width="34" height="35" viewBox="0 0 34 35" fill="none" xmlns="http://www.w3.org/2000/svg">
<path opacity="0.987" fill-rule="evenodd" clip-rule="evenodd" d="M14.8981 0.151875C16.7106 -0.050625 17.7831 -0.050625 19.7306 0.151875C23.1779 0.662113 26.3736 2.25559 28.8556 4.70188C27.1784 6.28721 25.5233 7.8957 23.8906 9.52687C20.7639 6.87687 17.2739 6.26521 13.4206 7.69187C10.5939 8.99187 8.62561 11.0985 7.51561 14.0119C5.70171 12.6615 3.91144 11.2796 2.14561 9.86687C2.02289 9.80228 1.88273 9.77863 1.74561 9.79937C4.55061 4.39104 8.93394 1.17437 14.8956 0.149375" fill="#F44336"/>
<path opacity="0.997" fill-rule="evenodd" clip-rule="evenodd" d="M1.74063 9.79899C1.8823 9.77732 2.01646 9.79982 2.14313 9.86649C3.90896 11.2792 5.69923 12.6611 7.51313 14.0115C7.22769 15.1466 7.04776 16.3057 6.97563 17.474C7.0373 18.604 7.21646 19.7132 7.51313 20.8015L1.87563 25.289C-0.57937 20.159 -0.62437 14.9957 1.74063 9.79899Z" fill="#FFC107"/>
<path opacity="0.999" fill-rule="evenodd" clip-rule="evenodd" d="M28.5882 30.7248C26.8328 29.1768 24.9951 27.7247 23.0832 26.3748C24.9998 25.0215 26.1632 23.1648 26.5732 20.8048H17.1807V14.2823C22.5973 14.2373 28.0115 14.2832 33.4232 14.4198C34.4498 19.9948 33.264 25.0215 29.8657 29.4998C29.4616 29.9294 29.0335 30.3383 28.5882 30.7248Z" fill="#448AFF"/>
<path opacity="0.993" fill-rule="evenodd" clip-rule="evenodd" d="M7.51299 20.8047C9.56299 25.8997 13.3213 28.278 18.788 27.9397C20.3226 27.762 21.7939 27.2259 23.083 26.3747C24.9963 27.728 26.8313 29.178 28.588 30.7247C25.8046 33.2258 22.2558 34.7099 18.5205 34.9347C17.6718 35.0025 16.8191 35.0025 15.9705 34.9347C9.60715 34.1847 4.90882 30.9697 1.87549 25.2897L7.51299 20.8047Z" fill="#43A047"/>
</svg>
