<svg width="15" height="15" viewBox="0 0 15 15" fill="none" xmlns="http://www.w3.org/2000/svg">
<path d="M0.833496 12.5013C0.833496 11.6172 1.18469 10.7694 1.80981 10.1443C2.43493 9.51916 3.28277 9.16797 4.16683 9.16797H10.8335C11.7176 9.16797 12.5654 9.51916 13.1905 10.1443C13.8156 10.7694 14.1668 11.6172 14.1668 12.5013C14.1668 12.9433 13.9912 13.3673 13.6787 13.6798C13.3661 13.9924 12.9422 14.168 12.5002 14.168H2.50016C2.05814 14.168 1.63421 13.9924 1.32165 13.6798C1.00909 13.3673 0.833496 12.9433 0.833496 12.5013Z" stroke="#1A1515" stroke-width="1.66667" stroke-linejoin="round"/>
<path d="M7.5 5.83398C8.88071 5.83398 10 4.7147 10 3.33398C10 1.95327 8.88071 0.833984 7.5 0.833984C6.11929 0.833984 5 1.95327 5 3.33398C5 4.7147 6.11929 5.83398 7.5 5.83398Z" stroke="#1A1515" stroke-width="1.66667"/>
</svg>
