<svg width="13" height="15" viewBox="0 0 13 15" fill="none" xmlns="http://www.w3.org/2000/svg">
<path d="M7.45167 12.5H6.25C4.51 12.5 3.03333 11.8936 1.82 10.6808C0.606667 9.46806 0 7.99222 0 6.25333C0 4.51444 0.606389 3.0375 1.81917 1.8225C3.03194 0.6075 4.50833 0 6.24833 0C7.11833 0 7.93222 0.162778 8.69 0.488333C9.44778 0.813333 10.1097 1.25889 10.6758 1.825C11.2419 2.39111 11.6875 3.05194 12.0125 3.8075C12.3375 4.56306 12.5 5.37722 12.5 6.25C12.5 7.84444 12.0906 9.30667 11.2717 10.6367C10.4528 11.9667 9.41028 13.0722 8.14417 13.9533C8.06972 13.9961 7.99472 14.0197 7.91917 14.0242C7.84472 14.0281 7.77333 14.0114 7.705 13.9742C7.63667 13.9369 7.58222 13.8894 7.54167 13.8317C7.50111 13.7739 7.47917 13.7008 7.47583 13.6125L7.45167 12.5ZM8.33333 12.7917C9.31944 11.9583 10.1217 10.9828 10.74 9.865C11.3583 8.74722 11.6672 7.54222 11.6667 6.25C11.6667 4.73611 11.1422 3.455 10.0933 2.40667C9.04444 1.35833 7.76333 0.833889 6.25 0.833333C4.73667 0.832778 3.45556 1.35722 2.40667 2.40667C1.35778 3.45611 0.833333 4.73722 0.833333 6.25C0.833333 7.76278 1.35778 9.04417 2.40667 10.0942C3.45556 11.1442 4.73667 11.6683 6.25 11.6667H8.33333V12.7917ZM6.28 10.4758C6.45 10.4758 6.59444 10.4158 6.71333 10.2958C6.83222 10.1758 6.89139 10.0306 6.89083 9.86C6.89028 9.68944 6.83028 9.545 6.71083 9.42667C6.59139 9.30833 6.44611 9.24889 6.275 9.24833C6.10389 9.24778 5.95944 9.30805 5.84167 9.42917C5.72389 9.55028 5.66444 9.69556 5.66333 9.865C5.66222 10.0344 5.72222 10.1789 5.84333 10.2983C5.96444 10.4178 6.11 10.4769 6.28 10.4758ZM4.54917 4.335C4.64583 4.37222 4.74222 4.36972 4.83833 4.3275C4.93444 4.28528 5.01306 4.21722 5.07417 4.12333C5.18806 3.93556 5.34972 3.78556 5.55917 3.67333C5.76861 3.56222 6.00972 3.50667 6.2825 3.50667C6.69139 3.50667 7.02389 3.61361 7.28 3.8275C7.53611 4.04139 7.66389 4.33083 7.66333 4.69583C7.66333 4.92139 7.60861 5.1325 7.49917 5.32917C7.38972 5.52528 7.20305 5.75528 6.93917 6.01917C6.58139 6.3675 6.32444 6.66639 6.16833 6.91583C6.01222 7.16528 5.93444 7.4075 5.935 7.6425C5.935 7.75194 5.97056 7.84528 6.04167 7.9225C6.11278 7.99972 6.19889 8.03861 6.3 8.03917C6.40111 8.03972 6.48583 8.00083 6.55417 7.9225C6.6225 7.84583 6.66305 7.75111 6.67583 7.63833C6.70305 7.46611 6.79611 7.27472 6.955 7.06417C7.11389 6.85361 7.30722 6.63472 7.535 6.4075C7.84833 6.09417 8.0725 5.79889 8.2075 5.52167C8.3425 5.24389 8.41 4.96639 8.41 4.68917C8.41 4.1175 8.21278 3.65778 7.81833 3.31C7.42389 2.96222 6.9225 2.78833 6.31417 2.78833C5.90528 2.78833 5.52861 2.88806 5.18417 3.0875C4.83972 3.28694 4.58083 3.52472 4.4075 3.80083C4.34639 3.91361 4.32833 4.02139 4.35333 4.12417C4.37833 4.22694 4.44361 4.29722 4.54917 4.335Z" fill="#1A1515"/>
</svg>
