<svg width="25" height="25" viewBox="0 0 25 25" fill="none" xmlns="http://www.w3.org/2000/svg">
<g filter="url(#filter0_d_4870_380)">
<path d="M12.924 4.24399L20.424 11.744C20.949 12.269 20.5773 13.1665 19.8348 13.1665H19.0015V18.1665C19.0015 18.8295 18.7381 19.4654 18.2692 19.9343C17.8004 20.4031 17.1645 20.6665 16.5015 20.6665H15.6681V14.8332C15.6682 14.1955 15.4245 13.5819 14.9871 13.1179C14.5496 12.654 13.9514 12.3747 13.3148 12.3373L13.1681 12.3332H11.5015C10.8384 12.3332 10.2025 12.5965 9.73369 13.0654C9.26485 13.5342 9.00146 14.1701 9.00146 14.8332V20.6665H8.16812C7.50508 20.6665 6.8692 20.4031 6.40036 19.9343C5.93152 19.4654 5.66812 18.8295 5.66812 18.1665V13.1665H4.83479C4.09312 13.1665 3.72062 12.269 4.24562 11.744L11.7456 4.24399C11.9019 4.08776 12.1138 4 12.3348 4C12.5558 4 12.7677 4.08776 12.924 4.24399ZM13.1681 13.9998C13.3891 13.9998 13.6011 14.0876 13.7574 14.2439C13.9137 14.4002 14.0015 14.6121 14.0015 14.8332V20.6665H10.6681V14.8332C10.6681 14.629 10.7431 14.432 10.8787 14.2795C11.0144 14.127 11.2012 14.0295 11.404 14.0057L11.5015 13.9998H13.1681Z" fill="#1A1515"/>
</g>
<defs>
<filter id="filter0_d_4870_380" x="-1.66504" y="-1.66699" width="28" height="28" filterUnits="userSpaceOnUse" color-interpolation-filters="sRGB">
<feFlood flood-opacity="0" result="BackgroundImageFix"/>
<feColorMatrix in="SourceAlpha" type="matrix" values="0 0 0 0 0 0 0 0 0 0 0 0 0 0 0 0 0 0 127 0" result="hardAlpha"/>
<feOffset/>
<feGaussianBlur stdDeviation="2"/>
<feComposite in2="hardAlpha" operator="out"/>
<feColorMatrix type="matrix" values="0 0 0 0 1 0 0 0 0 1 0 0 0 0 1 0 0 0 1 0"/>
<feBlend mode="normal" in2="BackgroundImageFix" result="effect1_dropShadow_4870_380"/>
<feBlend mode="normal" in="SourceGraphic" in2="effect1_dropShadow_4870_380" result="shape"/>
</filter>
</defs>
</svg>
