<svg width="20" height="20" viewBox="0 0 20 20" fill="none" xmlns="http://www.w3.org/2000/svg">
<path d="M14.1665 1.66652C15.2707 1.66982 16.3286 2.10989 17.1094 2.89064C17.8901 3.67138 18.3302 4.72935 18.3335 5.83348V14.1665C18.3302 15.2707 17.8901 16.3286 17.1094 17.1094C16.3286 17.8901 15.2707 18.3302 14.1665 18.3335H5.83348C4.72935 18.3302 3.67138 17.8901 2.89064 17.1094C2.10989 16.3286 1.66982 15.2707 1.66652 14.1665V5.83348C1.66982 4.72935 2.10989 3.67138 2.89064 2.89064C3.67138 2.10989 4.72935 1.66982 5.83348 1.66652H14.1665ZM14.1665 0H5.83348C2.625 0 0 2.625 0 5.83348V14.1665C0 17.375 2.625 20 5.83348 20H14.1665C17.375 20 20 17.375 20 14.1665V5.83348C20 2.625 17.375 0 14.1665 0Z" fill="url(#paint0_linear_3711_17486)"/>
<path d="M15.4165 5.83398C15.1693 5.83398 14.9276 5.76067 14.7221 5.62332C14.5165 5.48597 14.3563 5.29075 14.2617 5.06234C14.1671 4.83393 14.1423 4.5826 14.1905 4.34012C14.2388 4.09765 14.3578 3.87492 14.5326 3.7001C14.7075 3.52529 14.9302 3.40623 15.1727 3.358C15.4151 3.30977 15.6665 3.33453 15.8949 3.42914C16.1233 3.52375 16.3185 3.68396 16.4559 3.88952C16.5932 4.09508 16.6665 4.33676 16.6665 4.58398C16.6669 4.74824 16.6348 4.91094 16.5721 5.06276C16.5094 5.21457 16.4173 5.35251 16.3012 5.46866C16.185 5.5848 16.0471 5.67686 15.8953 5.73955C15.7435 5.80225 15.5808 5.83434 15.4165 5.83398ZM10 6.66702C10.6593 6.66702 11.3038 6.86253 11.852 7.22881C12.4002 7.5951 12.8274 8.11572 13.0797 8.72483C13.332 9.33395 13.3981 10.0042 13.2694 10.6508C13.1408 11.2975 12.8233 11.8914 12.3571 12.3576C11.8909 12.8238 11.297 13.1413 10.6503 13.2699C10.0037 13.3986 9.33345 13.3325 8.72433 13.0802C8.11522 12.8279 7.5946 12.4007 7.22831 11.8525C6.86203 11.3043 6.66652 10.6598 6.66652 10.0005C6.66747 9.1167 7.01897 8.26936 7.64392 7.64442C8.26886 7.01947 9.1162 6.66797 10 6.66702ZM10 5.0005C9.0111 5.0005 8.0444 5.29375 7.22215 5.84315C6.39991 6.39256 5.75904 7.17345 5.3806 8.08709C5.00217 9.00072 4.90315 10.006 5.09608 10.976C5.289 11.9459 5.76521 12.8368 6.46447 13.536C7.16373 14.2353 8.05465 14.7115 9.02455 14.9044C9.99446 15.0974 10.9998 14.9983 11.9134 14.6199C12.827 14.2415 13.6079 13.6006 14.1574 12.7784C14.7068 11.9561 15 10.9894 15 10.0005C15 8.67442 14.4732 7.40265 13.5355 6.46497C12.5979 5.52729 11.3261 5.0005 10 5.0005Z" fill="url(#paint1_linear_3711_17486)"/>
<defs>
<linearGradient id="paint0_linear_3711_17486" x1="2.75" y1="1.75" x2="10" y2="20" gradientUnits="userSpaceOnUse">
<stop stop-color="#4F5BD5"/>
<stop offset="0.168423" stop-color="#962FBF"/>
<stop offset="0.449528" stop-color="#D62976"/>
<stop offset="0.776817" stop-color="#FA7E1E"/>
<stop offset="0.974384" stop-color="#FEDA75"/>
</linearGradient>
<linearGradient id="paint1_linear_3711_17486" x1="6.60415" y1="4.35481" x2="10.8333" y2="15.0005" gradientUnits="userSpaceOnUse">
<stop stop-color="#4F5BD5"/>
<stop offset="0.168423" stop-color="#962FBF"/>
<stop offset="0.449528" stop-color="#D62976"/>
<stop offset="0.776817" stop-color="#FA7E1E"/>
<stop offset="0.974384" stop-color="#FEDA75"/>
</linearGradient>
</defs>
</svg>
