<svg width="17" height="17" viewBox="0 0 17 17" fill="none" xmlns="http://www.w3.org/2000/svg">
<path d="M10.9267 5.67917L12.0267 6.77917C12.8558 7.60833 13.1475 6.07917 14.305 5.8875C14.6933 5.8225 15.0358 5.69083 15.1825 5.26083C15.3125 4.88083 15.165 4.52333 14.7042 4.0625L13.5417 2.90083M7.29167 8.95833L15.625 0.625M4.375 15.625C4.86746 15.625 5.35509 15.528 5.81006 15.3395C6.26503 15.1511 6.67843 14.8749 7.02665 14.5266C7.37487 14.1784 7.65109 13.765 7.83955 13.3101C8.028 12.8551 8.125 12.3675 8.125 11.875C8.125 11.3825 8.028 10.8949 7.83955 10.4399C7.65109 9.98497 7.37487 9.57157 7.02665 9.22335C6.67843 8.87513 6.26503 8.59891 5.81006 8.41045C5.35509 8.222 4.86746 8.125 4.375 8.125C3.38044 8.125 2.42661 8.52009 1.72335 9.22335C1.02009 9.92661 0.625 10.8804 0.625 11.875C0.625 12.8696 1.02009 13.8234 1.72335 14.5266C2.42661 15.2299 3.38044 15.625 4.375 15.625Z" stroke="#1A1515" stroke-width="1.25" stroke-linecap="round" stroke-linejoin="round"/>
</svg>
