<svg width="32" height="32" viewBox="0 0 32 32" fill="none" xmlns="http://www.w3.org/2000/svg">
<rect width="32" height="32" rx="16" fill="#5D3A82"/>
<path d="M16.0002 13.0832C18.0835 13.0832 19.7502 14.7498 19.7502 16.8332C19.7502 18.9165 18.0835 20.5832 16.0002 20.5832C13.9168 20.5832 12.2502 18.9165 12.2502 16.8332C12.2502 14.7498 13.9168 13.0832 16.0002 13.0832ZM16.0002 13.9165C15.2266 13.9165 14.4847 14.2238 13.9378 14.7708C13.3908 15.3178 13.0835 16.0596 13.0835 16.8332C13.0835 17.6067 13.3908 18.3486 13.9378 18.8956C14.4847 19.4425 15.2266 19.7498 16.0002 19.7498C16.7737 19.7498 17.5156 19.4425 18.0626 18.8956C18.6095 18.3486 18.9168 17.6067 18.9168 16.8332C18.9168 16.0596 18.6095 15.3178 18.0626 14.7708C17.5156 14.2238 16.7737 13.9165 16.0002 13.9165ZM10.5835 10.5832H12.2502L13.9168 8.9165H18.0835L19.7502 10.5832H21.4168C22.0799 10.5832 22.7158 10.8466 23.1846 11.3154C23.6534 11.7842 23.9168 12.4201 23.9168 13.0832V20.5832C23.9168 21.2462 23.6534 21.8821 23.1846 22.3509C22.7158 22.8198 22.0799 23.0832 21.4168 23.0832H10.5835C9.92045 23.0832 9.28457 22.8198 8.81573 22.3509C8.34689 21.8821 8.0835 21.2462 8.0835 20.5832V13.0832C8.0835 12.4201 8.34689 11.7842 8.81573 11.3154C9.28457 10.8466 9.92045 10.5832 10.5835 10.5832ZM14.2585 9.74984L12.5918 11.4165H10.5835C10.1415 11.4165 9.71755 11.5921 9.40498 11.9047C9.09242 12.2172 8.91683 12.6411 8.91683 13.0832V20.5832C8.91683 21.0252 9.09242 21.4491 9.40498 21.7617C9.71755 22.0742 10.1415 22.2498 10.5835 22.2498H21.4168C21.8589 22.2498 22.2828 22.0742 22.5953 21.7617C22.9079 21.4491 23.0835 21.0252 23.0835 20.5832V13.0832C23.0835 12.6411 22.9079 12.2172 22.5953 11.9047C22.2828 11.5921 21.8589 11.4165 21.4168 11.4165H19.4085L17.7418 9.74984H14.2585Z" fill="white"/>
</svg>
