<svg width="22" height="24" viewBox="0 0 22 24" fill="none" xmlns="http://www.w3.org/2000/svg">
<path d="M4.39551 4.36523C4.79624 3.95235 5.01837 3.39835 5.01385 2.823C4.99318 2.26475 4.75993 1.73552 4.36184 1.34361C3.96375 0.951707 3.43093 0.726771 2.87242 0.714844C2.31227 0.726548 1.77755 0.950921 1.37677 1.34243C0.975985 1.73395 0.739163 2.26327 0.714355 2.823C0.722512 3.39734 0.951033 3.9466 1.35268 4.35723C1.75433 4.76786 2.2984 5.00847 2.87242 5.02932C3.44765 5.01666 3.99478 4.7781 4.39551 4.36523Z" stroke="#4147D5" stroke-width="1.42857" stroke-linecap="round" stroke-linejoin="round"/>
<path d="M2.87242 7.87957C1.75262 7.87957 0.945636 7.68156 0.945636 8.94945V21.3022C0.945636 22.5867 1.76926 22.3238 2.87242 22.3238C3.97559 22.3238 4.78257 22.5867 4.78257 21.3022V8.94945C4.78257 7.68156 3.99222 7.87957 2.87242 7.87957Z" stroke="#4147D5" stroke-width="1.42857" stroke-linecap="round" stroke-linejoin="round"/>
<path d="M8.78424 7.89621C8.37326 7.97774 8.11036 8.2423 8.11036 8.95111L8.1087 21.3022C8.1087 22.5867 8.89904 22.3238 10.0188 22.3238C11.1386 22.3238 11.9456 22.5867 11.9456 21.3022V14.7148C11.9127 14.378 11.9518 14.038 12.0603 13.7175C12.1687 13.3969 12.3441 13.103 12.5748 12.8554C12.8054 12.6077 13.0861 12.412 13.3982 12.281C13.7103 12.1501 14.0466 12.087 14.3849 12.0959C14.7244 12.0758 15.0642 12.129 15.3813 12.2518C15.6984 12.3747 15.9854 12.5643 16.2227 12.8078C16.4601 13.0513 16.6423 13.343 16.757 13.6632C16.8717 13.9833 16.9161 14.3244 16.8874 14.6633V21.2523C16.8874 22.5368 17.6794 22.2739 18.7992 22.2739C19.919 22.2739 20.7094 22.5368 20.7094 21.2523V12.8197C20.7405 12.1273 20.6257 11.4362 20.3724 10.7911C20.119 10.146 19.7328 9.56141 19.2389 9.07529C18.7449 8.58917 18.1542 8.21238 17.5051 7.96941C16.8561 7.72643 16.1632 7.62269 15.4714 7.66492C14.7669 7.60024 14.0576 7.71778 13.4116 8.00625C12.7656 8.29471 12.2047 8.74442 11.7826 9.31218C11.7992 8.70319 11.6012 7.89621 11.107 7.89621C10.6145 7.89621 9.19522 7.81467 8.78424 7.89621Z" stroke="#4147D5" stroke-width="1.42857" stroke-linecap="round" stroke-linejoin="round"/>
</svg>
