<svg width="24" height="24" viewBox="0 0 24 24" fill="none" xmlns="http://www.w3.org/2000/svg">
<path d="M12.1486 12.0296C13.4787 12.0296 14.5569 10.9513 14.5569 9.62122C14.5569 8.29114 13.4787 7.21289 12.1486 7.21289C10.8185 7.21289 9.74023 8.29114 9.74023 9.62122C9.74023 10.9513 10.8185 12.0296 12.1486 12.0296Z" fill="white"/>
<path d="M17.5244 9.70293C17.5244 6.59793 15.1467 4.07227 12.2234 4.07227C9.30003 4.07227 6.92236 6.59793 6.92236 9.70427C6.92303 9.85927 6.9967 13.5739 11.2424 20.1193C11.3297 20.2989 11.4622 20.4527 11.6269 20.5657C11.7915 20.6787 11.9827 20.747 12.1817 20.7639C12.795 20.7639 13.213 20.0886 13.2537 20.0199C17.5267 13.4709 17.5267 9.8506 17.5244 9.70293ZM12.2234 11.9709C11.7564 11.9709 11.2999 11.8325 10.9117 11.573C10.5234 11.3136 10.2208 10.9449 10.0421 10.5134C9.86339 10.082 9.81663 9.60731 9.90773 9.14932C9.99883 8.69134 10.2237 8.27065 10.5539 7.94045C10.8841 7.61026 11.3048 7.3854 11.7628 7.2943C12.2207 7.2032 12.6955 7.24995 13.1269 7.42865C13.5583 7.60735 13.927 7.90997 14.1865 8.29823C14.4459 8.6865 14.5844 9.14297 14.5844 9.60993C14.5837 10.2359 14.3348 10.8361 13.8922 11.2787C13.4495 11.7214 12.8493 11.9703 12.2234 11.9709Z" fill="#666666"/>
<path d="M17.5244 9.70293C17.5244 6.59793 15.1467 4.07227 12.2234 4.07227C11.7882 4.07428 11.3551 4.13311 10.9351 4.24727C13.7334 4.39727 15.9684 6.85493 15.9684 9.86393C15.9704 10.0116 15.9704 13.6316 11.6974 20.1806C11.6397 20.2744 11.5744 20.3632 11.5021 20.4463C11.6754 20.6409 11.9211 20.7556 12.1821 20.7643C12.7951 20.7643 13.2131 20.0886 13.2537 20.0199C17.5267 13.4709 17.5267 9.8506 17.5244 9.70293Z" fill="#666666"/>
<path d="M12.1815 20.7643C11.9826 20.7472 11.7914 20.6789 11.6268 20.5658C11.4623 20.4527 11.3298 20.2989 11.2425 20.1193C6.99654 13.5739 6.92288 9.8596 6.92188 9.70427C6.92188 6.5976 9.29987 4.07227 12.2232 4.07227C15.1465 4.07227 17.5242 6.59793 17.5242 9.70293C17.5265 9.85093 17.5265 13.4709 13.2535 20.0196C13.2129 20.0886 12.7945 20.7643 12.1815 20.7643Z" stroke="#5D3A82" stroke-width="0.555556" stroke-linecap="round" stroke-linejoin="round"/>
<path d="M12.2233 11.971C11.7563 11.971 11.2999 11.8326 10.9116 11.5731C10.5233 11.3137 10.2207 10.945 10.042 10.5135C9.86333 10.0821 9.81657 9.60741 9.90767 9.14942C9.99877 8.69143 10.2236 8.27074 10.5538 7.94055C10.884 7.61035 11.3047 7.38549 11.7627 7.29439C12.2207 7.20329 12.6954 7.25005 13.1268 7.42874C13.5582 7.60744 13.927 7.91006 14.1864 8.29832C14.4458 8.68659 14.5843 9.14306 14.5843 9.61002C14.5837 10.236 14.3347 10.8362 13.8921 11.2788C13.4495 11.7215 12.8493 11.9704 12.2233 11.971Z" stroke="#5D3A82" stroke-width="0.555556" stroke-linecap="round" stroke-linejoin="round"/>
</svg>
