<svg width="51" height="57" viewBox="0 0 51 57" fill="none" xmlns="http://www.w3.org/2000/svg">
<path d="M2.71463 29.1563C-0.830122 23.2158 1.05722 15.4934 6.93012 11.9079L26.4344 0C29.9792 5.9405 28.0918 13.6629 22.2189 17.2485L2.71463 29.1563Z" fill="#1A1515"/>
<path d="M1.43096 32.1645C-1.40484 36.9169 0.105031 43.0948 4.80335 45.9632L22.8809 57C26.4256 51.0595 24.5383 43.3371 18.6654 39.7515L4.8414 31.3117C3.66682 30.5945 2.13991 30.9764 1.43096 32.1645Z" fill="#2A1F2F"/>
<path d="M49.0059 32.1645C51.8417 36.9169 50.3318 43.0948 45.6335 45.9632L27.556 57C24.0112 51.0595 25.8986 43.3371 31.7715 39.7515L45.5955 31.3117C46.77 30.5945 48.2969 30.9764 49.0059 32.1645Z" fill="#3A2A4A"/>
<path d="M49.2113 29.9524C52.7561 24.0119 50.8687 16.2895 44.9958 12.7039L37.9066 8.37577C34.3618 14.3163 36.2492 22.0387 42.1221 25.6242L49.2113 29.9524Z" fill="#5D3A82"/>
</svg>
