<svg width="18" height="18" viewBox="0 0 18 18" fill="none" xmlns="http://www.w3.org/2000/svg">
<path d="M9 14.25C11.4825 14.25 13.5 12.2325 13.5 9.75V6C13.5 3.5175 11.4825 1.5 9 1.5C6.5175 1.5 4.5 3.5175 4.5 6V9.75C4.5 12.2325 6.5175 14.25 9 14.25Z" stroke="#666666" stroke-width="1.5" stroke-linecap="round" stroke-linejoin="round"/>
<path d="M2.25 8.25V9.75C2.25 13.4775 5.2725 16.5 9 16.5C12.7275 16.5 15.75 13.4775 15.75 9.75V8.25" stroke="#666666" stroke-width="1.5" stroke-linecap="round" stroke-linejoin="round"/>
<path d="M6.83252 5.60977C8.16752 5.12227 9.62252 5.12227 10.9575 5.60977" stroke="#666666" stroke-width="1.5" stroke-linecap="round" stroke-linejoin="round"/>
<path d="M7.52246 7.86043C8.42246 7.61293 9.37496 7.61293 10.275 7.86043" stroke="#666666" stroke-width="1.5" stroke-linecap="round" stroke-linejoin="round"/>
</svg>
