<svg width="196" height="196" viewBox="0 0 196 196" fill="none" xmlns="http://www.w3.org/2000/svg">
<g filter="url(#filter0_d_4787_11616)">
<rect x="38" y="13" width="120" height="120" rx="60" fill="#5D3A82" fill-opacity="0.7" shape-rendering="crispEdges"/>
<rect x="40.5" y="15.5" width="115" height="115" rx="57.5" stroke="#5D3A82" stroke-width="5" shape-rendering="crispEdges"/>
<path d="M98 87C104.62 87 110 81.62 110 75V65C110 58.38 104.62 53 98 53C91.38 53 86 58.38 86 65V75C86 81.62 91.38 87 98 87Z" stroke="white" stroke-width="3.69056" stroke-linecap="round" stroke-linejoin="round"/>
<path d="M80 71V75C80 84.94 88.06 93 98 93C107.94 93 116 84.94 116 75V71" stroke="white" stroke-width="3.69056" stroke-linecap="round" stroke-linejoin="round"/>
<path d="M92.22 63.9604C95.78 62.6604 99.66 62.6604 103.22 63.9604" stroke="white" stroke-width="3.69056" stroke-linecap="round" stroke-linejoin="round"/>
<path d="M94.0601 69.9598C96.4601 69.2998 99.0001 69.2998 101.4 69.9598" stroke="white" stroke-width="3.69056" stroke-linecap="round" stroke-linejoin="round"/>
</g>
<defs>
<filter id="filter0_d_4787_11616" x="0" y="0" width="196" height="196" filterUnits="userSpaceOnUse" color-interpolation-filters="sRGB">
<feFlood flood-opacity="0" result="BackgroundImageFix"/>
<feColorMatrix in="SourceAlpha" type="matrix" values="0 0 0 0 0 0 0 0 0 0 0 0 0 0 0 0 0 0 127 0" result="hardAlpha"/>
<feMorphology radius="12" operator="erode" in="SourceAlpha" result="effect1_dropShadow_4787_11616"/>
<feOffset dy="25"/>
<feGaussianBlur stdDeviation="25"/>
<feComposite in2="hardAlpha" operator="out"/>
<feColorMatrix type="matrix" values="0 0 0 0 0 0 0 0 0 0 0 0 0 0 0 0 0 0 0.25 0"/>
<feBlend mode="normal" in2="BackgroundImageFix" result="effect1_dropShadow_4787_11616"/>
<feBlend mode="normal" in="SourceGraphic" in2="effect1_dropShadow_4787_11616" result="shape"/>
</filter>
</defs>
</svg>
