<svg width="17" height="17" viewBox="0 0 17 17" fill="none" xmlns="http://www.w3.org/2000/svg">
<path d="M16.3667 14.475C15.8309 13.9974 15.3619 13.4499 14.9722 12.8472C14.5464 12.0155 14.2914 11.1069 14.2222 10.175V7.43056C14.2259 5.96701 13.695 4.55249 12.7293 3.45276C11.7636 2.35304 10.4295 1.64381 8.97778 1.45833V0.741667C8.97778 0.544964 8.89964 0.356319 8.76055 0.217229C8.62146 0.0781397 8.43281 0 8.23611 0C8.03941 0 7.85076 0.0781397 7.71167 0.217229C7.57258 0.356319 7.49445 0.544964 7.49445 0.741667V1.46944C6.0557 1.66829 4.73776 2.38181 3.78474 3.47784C2.83171 4.57386 2.30818 5.97814 2.31111 7.43056V10.175C2.24197 11.1069 1.98696 12.0155 1.56111 12.8472C1.17827 13.4485 0.716775 13.996 0.188889 14.475C0.129629 14.5271 0.0821341 14.5911 0.0495652 14.663C0.0169964 14.7348 9.98868e-05 14.8128 0 14.8917V15.6472C0 15.7946 0.0585316 15.9359 0.162718 16.0401C0.266905 16.1442 0.408213 16.2028 0.555556 16.2028H16C16.1473 16.2028 16.2887 16.1442 16.3928 16.0401C16.497 15.9359 16.5556 15.7946 16.5556 15.6472V14.8917C16.5555 14.8128 16.5386 14.7348 16.506 14.663C16.4734 14.5911 16.4259 14.5271 16.3667 14.475ZM1.15556 15.0917C1.67233 14.5922 2.12742 14.0327 2.51111 13.425C3.04766 12.4205 3.36038 11.3118 3.42778 10.175V7.43056C3.40575 6.77946 3.51496 6.1306 3.74891 5.52259C3.98287 4.91459 4.33678 4.35988 4.78958 3.8915C5.24238 3.42312 5.7848 3.05065 6.38455 2.79626C6.98429 2.54188 7.62909 2.41078 8.28056 2.41078C8.93202 2.41078 9.57682 2.54188 10.1766 2.79626C10.7763 3.05065 11.3187 3.42312 11.7715 3.8915C12.2243 4.35988 12.5782 4.91459 12.8122 5.52259C13.0462 6.1306 13.1554 6.77946 13.1333 7.43056V10.175C13.2007 11.3118 13.5135 12.4205 14.05 13.425C14.4337 14.0327 14.8888 14.5922 15.4056 15.0917H1.15556Z" fill="#1A1515"/>
</svg>
