<svg width="22" height="22" viewBox="0 0 22 22" fill="none" xmlns="http://www.w3.org/2000/svg">
<path d="M0.625 16.625C0.625 15.085 0.625 14.315 0.972 13.749C1.166 13.432 1.432 13.166 1.749 12.972C2.314 12.625 3.085 12.625 4.625 12.625C6.165 12.625 6.935 12.625 7.501 12.972C7.818 13.166 8.084 13.432 8.278 13.749C8.625 14.314 8.625 15.085 8.625 16.625C8.625 18.165 8.625 18.935 8.278 19.502C8.084 19.818 7.818 20.084 7.501 20.278C6.936 20.625 6.165 20.625 4.625 20.625C3.085 20.625 2.315 20.625 1.749 20.278C1.43235 20.0843 1.16608 19.8184 0.972 19.502C0.625 18.935 0.625 18.165 0.625 16.625ZM12.625 16.625C12.625 15.085 12.625 14.315 12.972 13.749C13.166 13.432 13.432 13.166 13.749 12.972C14.314 12.625 15.085 12.625 16.625 12.625C18.165 12.625 18.935 12.625 19.502 12.972C19.818 13.166 20.084 13.432 20.278 13.749C20.625 14.314 20.625 15.085 20.625 16.625C20.625 18.165 20.625 18.935 20.278 19.502C20.0839 19.8181 19.8181 20.0839 19.502 20.278C18.935 20.625 18.165 20.625 16.625 20.625C15.085 20.625 14.315 20.625 13.749 20.278C13.4323 20.0843 13.1661 19.8184 12.972 19.502C12.625 18.935 12.625 18.165 12.625 16.625ZM0.625 4.625C0.625 3.085 0.625 2.315 0.972 1.749C1.166 1.432 1.432 1.166 1.749 0.972C2.314 0.625 3.085 0.625 4.625 0.625C6.165 0.625 6.935 0.625 7.501 0.972C7.818 1.166 8.084 1.432 8.278 1.749C8.625 2.314 8.625 3.085 8.625 4.625C8.625 6.165 8.625 6.935 8.278 7.501C8.084 7.818 7.818 8.084 7.501 8.278C6.936 8.625 6.165 8.625 4.625 8.625C3.085 8.625 2.315 8.625 1.749 8.278C1.43224 8.08404 1.16596 7.81777 0.972 7.501C0.625 6.936 0.625 6.165 0.625 4.625ZM12.625 4.625C12.625 3.085 12.625 2.315 12.972 1.749C13.166 1.432 13.432 1.166 13.749 0.972C14.314 0.625 15.085 0.625 16.625 0.625C18.165 0.625 18.935 0.625 19.502 0.972C19.818 1.166 20.084 1.432 20.278 1.749C20.625 2.314 20.625 3.085 20.625 4.625C20.625 6.165 20.625 6.935 20.278 7.501C20.084 7.818 19.818 8.084 19.502 8.278C18.935 8.625 18.165 8.625 16.625 8.625C15.085 8.625 14.315 8.625 13.749 8.278C13.4322 8.08404 13.166 7.81777 12.972 7.501C12.625 6.936 12.625 6.165 12.625 4.625Z" stroke="#1A1515" stroke-width="1.25"/>
</svg>
