<svg width="20" height="20" viewBox="0 0 20 20" fill="none" xmlns="http://www.w3.org/2000/svg">
<path fill-rule="evenodd" clip-rule="evenodd" d="M3.125 2.81287H9.0625C9.2351 2.81287 9.375 2.95277 9.375 3.12537V9.06287C9.375 9.23547 9.2351 9.37537 9.0625 9.37537H3.125C2.9524 9.37537 2.8125 9.23547 2.8125 9.06287V3.12537C2.8125 2.95277 2.9524 2.81287 3.125 2.81287ZM14.1468 2.31809L17.6823 5.85363C17.8043 5.97566 17.8043 6.17352 17.6823 6.29557L14.1467 9.83109C14.0247 9.95313 13.8269 9.95313 13.7048 9.83109L10.1693 6.29555C10.0472 6.17352 10.0472 5.97566 10.1693 5.85361L13.7048 2.31809C13.8269 2.19605 14.0247 2.19605 14.1468 2.31809ZM3.125 10.6254H9.0625C9.2351 10.6254 9.375 10.7653 9.375 10.9379V16.8754C9.375 17.048 9.2351 17.1879 9.0625 17.1879H3.125C2.9524 17.1879 2.8125 17.048 2.8125 16.8754V10.9379C2.8125 10.7653 2.9524 10.6254 3.125 10.6254ZM10.9375 10.6254H16.875C17.0476 10.6254 17.1875 10.7653 17.1875 10.9379V16.8754C17.1875 17.048 17.0476 17.1879 16.875 17.1879H10.9375C10.7649 17.1879 10.625 17.048 10.625 16.8754V10.9379C10.625 10.7653 10.7649 10.6254 10.9375 10.6254Z" fill="#1A1515"/>
</svg>
