<svg width="18" height="18" viewBox="0 0 18 18" fill="none" xmlns="http://www.w3.org/2000/svg">
<path d="M0.625 4.79079V9.78974C0.625 12.9316 0.625 14.5029 1.59979 15.4785C2.57709 16.455 4.14842 16.455 7.29026 16.455H10.2063M0.625 4.79079L1.76476 2.97034C2.48211 1.82391 2.84203 1.2507 3.40691 0.937434C3.9718 0.625 4.64832 0.625 6.00137 0.625H11.1253C12.5083 0.625 13.199 0.625 13.7722 0.949098C14.3454 1.27403 14.7004 1.86641 15.4119 3.05199L16.455 4.79079M0.625 4.79079H16.455M16.455 10.2063V4.79079M8.54 4.79079V0.625M11.8726 10.6229C11.8726 10.6229 9.78974 12.1567 9.78974 12.7058C9.78974 13.2548 11.8726 14.7887 11.8726 14.7887M10.2063 12.7058H14.5804C15.0776 12.7058 15.5544 12.9033 15.9059 13.2548C16.2575 13.6064 16.455 14.0832 16.455 14.5804C16.455 15.0776 16.2575 15.5544 15.9059 15.9059C15.5544 16.2575 15.0776 16.455 14.5804 16.455H13.9555M6.87368 7.29026H10.2063" stroke="#1A1515" stroke-width="1.25" stroke-linecap="round" stroke-linejoin="round"/>
</svg>
