<svg width="23" height="21" viewBox="0 0 23 21" fill="none" xmlns="http://www.w3.org/2000/svg">
<path d="M11.25 0C10.7305 0 10.3125 0.417969 10.3125 0.9375V1.40625H10.2422C8.8125 1.40625 7.65625 2.56641 7.65625 3.99219C7.65625 5.29687 8.62891 6.39844 9.92188 6.55859L12.3047 6.85547C12.5039 6.87891 12.6562 7.05078 12.6562 7.25391C12.6562 7.47656 12.4766 7.65234 12.2578 7.65234L9.375 7.65625C8.76953 7.65625 8.28125 8.14453 8.28125 8.75C8.28125 9.35547 8.76953 9.84375 9.375 9.84375H10.3125V10.3125C10.3125 10.832 10.7305 11.25 11.25 11.25C11.7695 11.25 12.1875 10.832 12.1875 10.3125V9.84375H12.2578C13.6875 9.84375 14.8438 8.68359 14.8438 7.25781C14.8438 5.95313 13.8711 4.85156 12.5781 4.69141L10.1953 4.39453C9.99609 4.37109 9.84375 4.19922 9.84375 3.99609C9.84375 3.77344 10.0234 3.59766 10.2422 3.59766L12.8125 3.59375C13.418 3.59375 13.9062 3.10547 13.9062 2.5C13.9062 1.89453 13.418 1.40625 12.8125 1.40625H12.1875V0.9375C12.1875 0.417969 11.7695 0 11.25 0ZM4.26953 13.9648L2.60547 15.625H1.25C0.558594 15.625 0 16.1836 0 16.875V19.375C0 20.0664 0.558594 20.625 1.25 20.625H13.7695C14.9023 20.625 16.0078 20.2617 16.9219 19.5898L21.8672 15.9453C22.5625 15.4336 22.7109 14.457 22.1992 13.7617C21.6875 13.0664 20.7109 12.918 20.0156 13.4297L15.3359 16.875H10.9375C10.418 16.875 10 16.457 10 15.9375C10 15.418 10.418 15 10.9375 15H13.75C14.4414 15 15 14.4414 15 13.75C15 13.0586 14.4414 12.5 13.75 12.5H7.80469C6.48047 12.5 5.20703 13.0273 4.26953 13.9648Z" fill="white"/>
</svg>
