<svg width="14" height="14" viewBox="0 0 14 14" fill="none" xmlns="http://www.w3.org/2000/svg">
<path d="M12.5417 10.4997H8.45837V4.08301H11.55C11.8125 4.08301 12.0167 4.25801 12.1042 4.49134L13.125 7.58301V9.91634C13.125 10.2372 12.8625 10.4997 12.5417 10.4997Z" fill="#666666"/>
<path d="M8.45833 10.5003H1.45833C1.1375 10.5003 0.875 10.2378 0.875 9.91699V2.62533C0.875 2.30449 1.1375 2.04199 1.45833 2.04199H7.875C8.19583 2.04199 8.45833 2.30449 8.45833 2.62533V10.5003Z" fill="#666666"/>
<path d="M10.7917 11.9587C11.5971 11.9587 12.25 11.3057 12.25 10.5003C12.25 9.69491 11.5971 9.04199 10.7917 9.04199C9.98629 9.04199 9.33337 9.69491 9.33337 10.5003C9.33337 11.3057 9.98629 11.9587 10.7917 11.9587Z" fill="#1A1515"/>
<path d="M3.79171 11.9587C4.59712 11.9587 5.25004 11.3057 5.25004 10.5003C5.25004 9.69491 4.59712 9.04199 3.79171 9.04199C2.98629 9.04199 2.33337 9.69491 2.33337 10.5003C2.33337 11.3057 2.98629 11.9587 3.79171 11.9587Z" fill="#1A1515"/>
<path d="M10.7917 11.0837C11.1139 11.0837 11.375 10.8225 11.375 10.5003C11.375 10.1782 11.1139 9.91699 10.7917 9.91699C10.4695 9.91699 10.2084 10.1782 10.2084 10.5003C10.2084 10.8225 10.4695 11.0837 10.7917 11.0837Z" fill="#666666"/>
<path d="M3.79171 11.0837C4.11387 11.0837 4.37504 10.8225 4.37504 10.5003C4.37504 10.1782 4.11387 9.91699 3.79171 9.91699C3.46954 9.91699 3.20837 10.1782 3.20837 10.5003C3.20837 10.8225 3.46954 11.0837 3.79171 11.0837Z" fill="#666666"/>
<path d="M11.9583 7.29199H9.91667C9.74167 7.29199 9.625 7.17533 9.625 7.00033V4.95866C9.625 4.78366 9.74167 4.66699 9.91667 4.66699H11.4625C11.5792 4.66699 11.6958 4.75449 11.725 4.87116L12.2208 6.38783C12.2208 6.41699 12.25 6.44616 12.25 6.47533V7.00033C12.25 7.17533 12.1333 7.29199 11.9583 7.29199Z" fill="#1A1515"/>
<path d="M6.35837 4.02539L4.05421 6.32956L2.97504 5.22122L2.33337 5.86289L4.05421 7.58372L7.00004 4.63789L6.35837 4.02539Z" fill="white"/>
</svg>
