<svg width="64" height="64" viewBox="0 0 64 64" fill="none" xmlns="http://www.w3.org/2000/svg">
<path d="M52.9 21.26L26.62 47.52L11.1 32C10.5696 31.4696 10.2716 30.7501 10.2716 30C10.2716 29.2498 10.5696 28.5304 11.1 28C11.6304 27.4696 12.3499 27.1716 13.1 27.1716C13.8502 27.1716 14.5696 27.4696 15.1 28L26.66 39.56L48.94 17.3C49.2026 17.0374 49.5145 16.829 49.8576 16.6869C50.2008 16.5447 50.5686 16.4716 50.94 16.4716C51.3114 16.4716 51.6792 16.5447 52.0224 16.6869C52.3656 16.829 52.6774 17.0374 52.94 17.3C53.2026 17.5626 53.411 17.8744 53.5531 18.2176C53.6953 18.5608 53.7684 18.9286 53.7684 19.3C53.7684 19.6714 53.6953 20.0392 53.5531 20.3824C53.411 20.7255 53.2026 21.0373 52.94 21.3L52.9 21.26Z" fill="#5D3A82"/>
<path fill-rule="evenodd" clip-rule="evenodd" d="M32 0C25.671 0 19.4841 1.87677 14.2218 5.39297C8.95939 8.90917 4.85787 13.9069 2.43587 19.7541C0.013865 25.6014 -0.619842 32.0355 0.614885 38.2429C1.84961 44.4503 4.89732 50.1521 9.3726 54.6274C13.8479 59.1027 19.5497 62.1504 25.7571 63.3851C31.9645 64.6198 38.3986 63.9861 44.2459 61.5641C50.0931 59.1421 55.0908 55.0406 58.607 49.7782C62.1232 44.5159 64 38.329 64 32C64 23.5131 60.6286 15.3737 54.6274 9.37258C48.6263 3.37142 40.4869 0 32 0ZM26.62 47.52L52.9 21.26L52.94 21.3C53.2026 21.0373 53.411 20.7255 53.5531 20.3824C53.6953 20.0392 53.7684 19.6714 53.7684 19.3C53.7684 18.9286 53.6953 18.5608 53.5531 18.2176C53.411 17.8744 53.2026 17.5626 52.94 17.3C52.6774 17.0374 52.3656 16.829 52.0224 16.6869C51.6792 16.5447 51.3114 16.4716 50.94 16.4716C50.5686 16.4716 50.2008 16.5447 49.8576 16.6869C49.5145 16.829 49.2026 17.0374 48.94 17.3L26.66 39.56L15.1 28C14.5696 27.4696 13.8502 27.1716 13.1 27.1716C12.3499 27.1716 11.6304 27.4696 11.1 28C10.5696 28.5304 10.2716 29.2498 10.2716 30C10.2716 30.7501 10.5696 31.4696 11.1 32L26.62 47.52Z" fill="#F3EEFB"/>
</svg>
