<svg width="39" height="38" viewBox="0 0 39 38" fill="none" xmlns="http://www.w3.org/2000/svg">
<path fill-rule="evenodd" clip-rule="evenodd" d="M16.6215 6.10108C15.5125 6.36566 15.1882 6.47947 15.0862 6.63989L15.0183 6.74668L15.1091 7.27981L15.1999 7.8129L15.2299 9.14834L15.2599 10.4838L15.3464 10.8176C15.3941 11.0013 15.5313 11.452 15.6514 11.8192C15.971 12.796 16.1198 13.6565 16.1198 14.5279C16.1198 14.7382 16.1385 14.8891 16.1684 14.9199C16.2194 14.9724 16.9874 14.9927 17.1087 14.9447C17.1439 14.9308 17.2297 14.8092 17.2993 14.6746C17.4586 14.3666 17.7916 14.0392 18.0941 13.8932L18.3271 13.7806L20.1846 13.7686L22.042 13.7566L22.2698 13.8248C22.7486 13.9682 23.1313 14.3018 23.3827 14.7947L23.5343 15.092L23.6779 15.1197C23.8442 15.1519 24.4104 15.1216 24.4524 15.0784C24.468 15.0622 24.4937 14.7543 24.5095 14.394C24.5551 13.3493 24.645 12.8675 25.0095 11.7149C25.1292 11.3362 25.2678 10.8761 25.3174 10.6924L25.4076 10.3586L25.4351 9.04401L25.4627 7.72944L25.5359 7.26658C25.5762 7.01206 25.5966 6.75244 25.5813 6.68976L25.5535 6.57574L25.3627 6.48861C25.1034 6.3703 23.7957 6.03927 23.5876 6.03927C23.3907 6.03927 23.3948 6.03477 23.1472 6.5192C22.9053 6.9924 22.7367 7.2304 22.4566 7.49415C21.841 8.0739 20.9515 8.38347 20.0837 8.32003C18.8102 8.22689 17.9807 7.66287 17.4381 6.52124C17.2764 6.181 17.1344 5.98928 17.0524 6.00046C17.0407 6.00205 16.8468 6.04733 16.6215 6.10108ZM8.6676 6.37401C8.05835 6.4836 7.47371 6.86574 7.10843 7.3932C6.88527 7.71546 6.78511 7.95375 6.70512 8.35275L6.64255 8.66491V10.3019V11.9389L6.72598 12.1165L6.80941 12.2941L6.98179 12.3801C7.07656 12.4274 7.20377 12.4661 7.26449 12.4661C7.43362 12.4661 7.68582 12.3136 7.7656 12.1631L7.83733 12.0279L7.85758 10.2751L7.87783 8.52235L7.9724 8.33456C8.10031 8.08066 8.32205 7.8495 8.56635 7.71542L8.76886 7.60424L10.4902 7.58337L12.2114 7.56251L12.3463 7.48672C12.4902 7.4058 12.6349 7.14034 12.6349 6.95739C12.6349 6.90001 12.5995 6.7726 12.5562 6.67428L12.4775 6.49549L12.304 6.41437L12.1304 6.33324L10.4902 6.33724C9.58799 6.33941 8.76784 6.35598 8.6676 6.37401ZM28.4508 6.37439C28.2913 6.42405 28.1305 6.60383 28.0693 6.80102C27.9812 7.08505 28.1077 7.38907 28.3666 7.51564L28.5051 7.58337L30.1595 7.58342L31.814 7.58346L32.057 7.70235C32.3456 7.84358 32.5997 8.09393 32.7312 8.36644L32.8265 8.56409L32.8467 10.3243L32.867 12.0846L32.9509 12.2023C33.214 12.5715 33.7509 12.5323 33.9503 12.1292L34.0212 11.9861L34.0212 10.2485L34.0213 8.51096L33.9272 8.17606C33.8076 7.75055 33.6214 7.43009 33.3066 7.10787C33.0121 6.80627 32.72 6.61702 32.3136 6.46424L32.0165 6.35264L30.2952 6.34434C29.3408 6.33979 28.5191 6.35314 28.4508 6.37439ZM18.4284 14.6191C18.1389 14.7481 17.934 15.0307 17.7373 15.5725C17.6905 15.7014 17.6009 15.8475 17.532 15.9072L17.4096 16.0133H17.2384H17.0672L16.9298 15.8673L16.7924 15.7212H16.115H15.4375L15.3114 15.8305L15.1853 15.9399L14.913 15.9707C14.4473 16.0233 14.113 16.2557 13.9105 16.6676L13.791 16.9106V20.124V23.3374L13.8995 23.576C14.0432 23.8918 14.335 24.2064 14.6162 24.3488L14.844 24.4641H20.3117H25.7793L26.0092 24.3531C26.3166 24.2046 26.5833 23.9432 26.7201 23.6563L26.8323 23.4208V20.1866V16.9523L26.7359 16.7324C26.6062 16.4368 26.2678 16.1194 25.9924 16.0351L25.7849 15.9716H24.5021H23.2195L23.0857 15.8777C22.9384 15.7744 22.948 15.7897 22.7508 15.3434C22.5839 14.9656 22.4136 14.7553 22.1804 14.639L22.0074 14.5527L20.2887 14.5543L18.5701 14.5559L18.4284 14.6191ZM19.5421 16.8271C19.2133 16.9028 18.9782 16.9935 18.7122 17.1474C17.6589 17.7566 17.0838 18.8168 17.086 20.1448L17.0868 20.6248L17.1713 20.9586C17.5506 22.4585 18.7712 23.4185 20.2914 23.4124C21.7685 23.4066 23.0153 22.4415 23.4188 20.9916L23.5093 20.6665L23.5061 20.1031L23.5029 19.5397L23.4151 19.2059C23.2296 18.5007 22.8209 17.8521 22.3114 17.4543C21.967 17.1853 21.3959 16.9111 21.012 16.8302C20.6333 16.7505 19.8818 16.7489 19.5421 16.8271ZM15.1841 17.2771C15.0906 17.3419 15.0345 17.4223 15.0089 17.528L14.9712 17.6837L15.0356 17.8226C15.119 18.003 15.3202 18.0999 15.6108 18.0999C15.9019 18.0999 16.0973 18.0155 16.1779 17.8549C16.2575 17.6962 16.258 17.5866 16.1799 17.4309C16.0905 17.2527 15.9258 17.1818 15.6013 17.1818H15.3218L15.1841 17.2771ZM24.5485 17.407C24.3537 17.5182 24.2804 17.8245 24.4047 18.0074C24.5052 18.1553 24.6805 18.2251 24.951 18.2251C25.2715 18.2251 25.4666 18.1322 25.5433 17.9431L25.6011 17.8006L25.5556 17.6588C25.5306 17.5808 25.4635 17.4791 25.4064 17.4329L25.3026 17.3488L24.9739 17.3502C24.7795 17.3511 24.6057 17.3743 24.5485 17.407ZM19.6839 17.7077C19.5614 17.7413 19.3446 17.8249 19.2022 17.8933L18.9433 18.0177L18.6132 18.3614C18.2446 18.7452 18.0696 19.0614 17.9594 19.5424L17.8931 19.8318L17.9155 20.2299C17.9672 21.1475 18.4165 21.8893 19.1509 22.2698C20.3908 22.9122 21.8718 22.4315 22.4414 21.2017C22.9008 20.2099 22.6554 18.9702 21.8554 18.2419C21.614 18.022 21.0931 17.7516 20.7856 17.6864C20.4897 17.6237 19.9514 17.634 19.6839 17.7077ZM12.7749 22.4833C12.6865 22.6373 12.3428 23.4709 12.0871 24.1511C11.2223 26.4522 10.1478 30.2227 10.2325 30.6592C10.2463 30.73 10.3235 30.8634 10.4042 30.9557L10.5509 31.1235L10.9268 31.2892C12.2204 31.8593 14.5224 32.4854 16.5046 32.8064C18.9522 33.2026 21.6698 33.2256 24.0378 32.87C25.7528 32.6125 27.5134 32.1556 29.0267 31.5755C29.9625 31.2167 30.2608 31.0319 30.379 30.7379L30.4312 30.6079L30.382 30.3113C30.2277 29.3811 29.6179 27.2723 28.9569 25.3823C28.4804 24.0199 27.8441 22.3984 27.7861 22.3984C27.7691 22.3984 27.7457 22.5909 27.734 22.8261C27.6956 23.5988 27.4625 24.1905 27.0146 24.6519C26.7219 24.9535 26.387 25.156 25.9975 25.2669L25.7388 25.3405H20.3117H14.8845L14.6314 25.2684C13.9763 25.0816 13.4829 24.6549 13.1697 24.0044C12.9997 23.6511 12.9143 23.2823 12.8848 22.774L12.8595 22.3358L12.7749 22.4833ZM6.96757 27.9819C6.88507 28.0288 6.78783 28.1378 6.73254 28.2453L6.6383 28.4287L6.65304 30.2858L6.66782 32.1429L6.73226 32.3343C7.00686 33.15 7.59461 33.7387 8.32918 33.9339L8.57806 34H10.3989H12.2197L12.3573 33.9053C12.7272 33.6507 12.7178 33.1475 12.3377 32.8549L12.2259 32.7689L10.4367 32.748L8.64735 32.7272L8.45838 32.6127C8.20496 32.4592 7.9903 32.1919 7.9174 31.9389L7.85758 31.7313V30.0655V28.3996L7.79185 28.2568C7.7025 28.0629 7.52053 27.9389 7.29551 27.9187L7.10831 27.9019L6.96757 27.9819ZM33.1426 27.9887C33.0714 28.0334 32.9803 28.1217 32.9401 28.1848L32.867 28.2996L32.8467 30.0752L32.8265 31.8508L32.7336 32.03C32.5982 32.2914 32.3942 32.507 32.1716 32.6242L31.976 32.7272L30.1939 32.748L28.4119 32.7689L28.3025 32.8454C28.178 32.9324 28.0267 33.2254 28.028 33.3768C28.0295 33.5528 28.1773 33.8269 28.3184 33.9155L28.4524 33.9997L30.2223 33.9998C31.3431 34 32.0709 33.9833 32.2069 33.9545C32.3249 33.9294 32.5582 33.8406 32.7252 33.757L33.029 33.605L33.3373 33.2913L33.6457 32.9776L33.789 32.6646C33.8679 32.4924 33.9524 32.252 33.9768 32.1304C34.005 31.9903 34.0212 31.2641 34.0212 30.1481L34.0212 28.387L33.9503 28.2418C33.8003 27.9342 33.4194 27.8148 33.1426 27.9887Z" fill="#1A1515"/>
</svg>
