<svg width="15" height="13" viewBox="0 0 15 13" fill="none" xmlns="http://www.w3.org/2000/svg">
<path d="M7.48333 13C7.32167 13 7.16139 12.9703 7.0025 12.9108C6.84361 12.8519 6.70389 12.7612 6.58333 12.6389L5.62667 11.7677C4.14333 10.4068 2.835 9.08333 1.70167 7.79714C0.567222 6.5115 0 5.17508 0 3.78788C0 2.71717 0.36 1.81818 1.08 1.09091C1.8 0.363636 2.69 0 3.75 0C4.35778 0 4.99083 0.155163 5.64917 0.465488C6.3075 0.775814 6.92444 1.36111 7.5 2.22138C8.07611 1.36111 8.69306 0.775814 9.35083 0.465488C10.0086 0.155163 10.6417 0 11.25 0C12.31 0 13.2 0.363636 13.92 1.09091C14.64 1.81818 15 2.71717 15 3.78788C15 5.20707 14.4097 6.57127 13.2292 7.88047C12.0486 9.18967 10.7564 10.4865 9.3525 11.771L8.40083 12.6389C8.27972 12.7612 8.13722 12.8519 7.97333 12.9108C7.80944 12.9697 7.64555 12.9994 7.48333 13ZM7.0925 3.09512C6.59361 2.28255 6.075 1.7037 5.53667 1.35859C4.99833 1.01403 4.40278 0.841751 3.75 0.841751C2.91667 0.841751 2.22222 1.12233 1.66667 1.6835C1.11111 2.24467 0.833333 2.94613 0.833333 3.78788C0.833333 4.40965 1.0075 5.04714 1.35583 5.70034C1.70417 6.3541 2.17194 7.02357 2.75917 7.70875C3.34583 8.39338 4.02056 9.09428 4.78333 9.81145C5.545 10.5281 6.33833 11.2657 7.16333 12.0244C7.25944 12.1108 7.37167 12.154 7.5 12.154C7.62833 12.154 7.74056 12.1108 7.83667 12.0244C8.66167 11.2657 9.45528 10.5278 10.2175 9.81061C10.9797 9.09456 11.6544 8.39394 12.2417 7.70875C12.8283 7.02301 13.2958 6.35354 13.6442 5.70034C13.9925 5.04714 14.1667 4.40965 14.1667 3.78788C14.1667 2.94613 13.8889 2.24467 13.3333 1.6835C12.7778 1.12233 12.0833 0.841751 11.25 0.841751C10.5972 0.841751 10.0017 1.01431 9.46333 1.35943C8.92444 1.70398 8.40583 2.28255 7.9075 3.09512C7.86306 3.17088 7.80361 3.22755 7.72917 3.26515C7.65472 3.30275 7.57833 3.32155 7.5 3.32155C7.42167 3.32155 7.34528 3.30275 7.27083 3.26515C7.19639 3.22755 7.13639 3.17088 7.0925 3.09512Z" fill="#1A1515"/>
</svg>
